<?xml version="1.0" encoding="utf-8"?>
<!-- Generator: Adobe Illustrator 15.1.0, SVG Export Plug-In  -->
<!DOCTYPE svg PUBLIC "-//W3C//DTD SVG 1.1//EN" "http://www.w3.org/Graphics/SVG/1.1/DTD/svg11.dtd" [
	<!ENTITY ns_flows "http://ns.adobe.com/Flows/1.0/">
]>
<svg version="1.1"
	 xmlns="http://www.w3.org/2000/svg" xmlns:xlink="http://www.w3.org/1999/xlink" xmlns:a="http://ns.adobe.com/AdobeSVGViewerExtensions/3.0/"
	 x="0px" y="0px" width="329px" height="500px" viewBox="1 0.003 329 500"
	 overflow="visible" enable-background="new 1 0.003 329 500" xml:space="preserve">
<defs>
</defs>
<path d="M230,0.003H100c0,0-100-2-100,99s0,302,0,302s1.001,99,101,99s129.25,0,129.25,0S329,499.336,329,401.17
	s0-201.167,0-201.167h-99l-100,100h100c0,0,0,100-100,100s-28,0-28,0v-200c0,0,0-100,100-100s28,0,28,0v51h99v-53
	C329,98.003,330,0.003,230,0.003z"/>
</svg>
