<?xml version="1.0" encoding="utf-8"?>
<!-- Generator: Adobe Illustrator 15.1.0, SVG Export Plug-In  -->
<!DOCTYPE svg PUBLIC "-//W3C//DTD SVG 1.1//EN" "http://www.w3.org/Graphics/SVG/1.1/DTD/svg11.dtd" [
	<!ENTITY ns_flows "http://ns.adobe.com/Flows/1.0/">
]>
<svg version="1.1"
	 xmlns="http://www.w3.org/2000/svg" xmlns:xlink="http://www.w3.org/1999/xlink" xmlns:a="http://ns.adobe.com/AdobeSVGViewerExtensions/3.0/"
	 x="0px" y="0px" width="300px" height="500px" viewBox="0 0.001 300 500"
	 overflow="visible" enable-background="new 0 0.001 300 500" xml:space="preserve">
<defs>
</defs>
<path d="M199.914,0.001C299.912,0.001,300,99.256,300,99.256s0,200.624,0,301.205s-100.167,99.541-100.167,99.541s0,0-100.001,0
	C-0.167,500.001,0,398.753,0,398.753S0,200.086,0,99.255C0-1.575,99.374,0.001,99.374,0.001S99.915,0.001,199.914,0.001z
	 M99.5,399.752c0,0,99.5,0,99.5-99.834c0-99.833,0-199.666,0-199.666s-99.086,0-99.086,99.833
	C99.914,300.001,99.5,399.752,99.5,399.752z"/>
</svg>
