<?xml version="1.0" encoding="utf-8"?>
<!-- Generator: Adobe Illustrator 15.1.0, SVG Export Plug-In  -->
<!DOCTYPE svg PUBLIC "-//W3C//DTD SVG 1.1//EN" "http://www.w3.org/Graphics/SVG/1.1/DTD/svg11.dtd" [
	<!ENTITY ns_flows "http://ns.adobe.com/Flows/1.0/">
]>
<svg version="1.1"
	 xmlns="http://www.w3.org/2000/svg" xmlns:xlink="http://www.w3.org/1999/xlink" xmlns:a="http://ns.adobe.com/AdobeSVGViewerExtensions/3.0/"
	 x="0px" y="0px" width="300px" height="500px" viewBox="1 0 300 500" overflow="visible" enable-background="new 1 0 300 500"
	 xml:space="preserve">
<defs>
</defs>
<path d="M245.721,240.759C298.997,215.82,301,149,301,149c0-9.417,0-24.918,0-49.5C301-1,201,0,201,0H101L0,100v101v49v250h101
	V299.25C202,299.25,202,400,202,400v100h99c0,0,0-70,0-169.833C301,276.778,272.364,252.136,245.721,240.759z M200,89v101h-99.5
	C100.5,190,100,89,200,89z"/>
</svg>
