<?xml version="1.0" encoding="utf-8"?>
<!-- Generator: Adobe Illustrator 15.1.0, SVG Export Plug-In  -->
<!DOCTYPE svg PUBLIC "-//W3C//DTD SVG 1.1//EN" "http://www.w3.org/Graphics/SVG/1.1/DTD/svg11.dtd" [
	<!ENTITY ns_flows "http://ns.adobe.com/Flows/1.0/">
]>
<svg version="1.1"
	 xmlns="http://www.w3.org/2000/svg" xmlns:xlink="http://www.w3.org/1999/xlink" xmlns:a="http://ns.adobe.com/AdobeSVGViewerExtensions/3.0/"
	 x="0px" y="0px" width="300px" height="500px" viewBox="0 0 300 500" overflow="visible" enable-background="new 0 0 300 500"
	 xml:space="preserve">
<defs>
</defs>
<path d="M200,300c0,0,0,100-100,100S0,400,0,400v100h200c0,0,100-0.336,100-100.168S300,250,300,250s0-50-100-50s-100,0-100,0v-10
	c0,0,0-90,90-90s110,0,110,0V0H100L0,100.5C0,200,0,200,0,200s0,100,100,100"/>
</svg>
